<svg xmlns="http://www.w3.org/2000/svg" width="6.633" height="6.646" viewBox="0 0 6.633 6.646">
  <path id="Icon_feather-phone" data-name="Icon feather-phone" d="M9.8,7.976v1a.667.667,0,0,1-.727.667A6.6,6.6,0,0,1,6.2,8.619a6.5,6.5,0,0,1-2-2A6.6,6.6,0,0,1,3.171,3.727.667.667,0,0,1,3.834,3h1a.667.667,0,0,1,.667.574,4.282,4.282,0,0,0,.233.937.667.667,0,0,1-.15.7l-.424.424a5.336,5.336,0,0,0,2,2l.424-.424a.667.667,0,0,1,.7-.15,4.282,4.282,0,0,0,.937.233A.667.667,0,0,1,9.8,7.976Z" transform="translate(-3.168 -3)" fill="#e50019"/>
</svg>
